<svg width="32" height="32" fill="none" xmlns="http://www.w3.org/2000/svg">
  <path fill-rule="evenodd" clip-rule="evenodd"
        d="M5 0a5 5 0 0 0-5 5v22a5 5 0 0 0 5 5h22a5 5 0 0 0 5-5V5a5 5 0 0 0-5-5H5zm19.378 10.216c.896 0 1.622-.72 1.622-1.608C26 7.72 25.274 7 24.378 7c-.896 0-1.622.72-1.622 1.608 0 .888.726 1.608 1.622 1.608zm-4.402-.46H7V24h3.707v-5.054h6.025L20.439 24h3.707l-3.707-5.054-.017-.027c1.837-.218 3.26-1.769 3.26-3.649v-1.838c0-2.03-1.659-3.675-3.706-3.675zm-9.269 2.758h8.342c.512 0 .927.41.927.918v1.838a.923.923 0 0 1-.927.92h-8.342v-3.677z"
        fill="#000"/>
</svg>
