<svg width="14" height="14" fill="none" xmlns="http://www.w3.org/2000/svg">
  <path fill-rule="evenodd" clip-rule="evenodd"
        d="M7.624 7.075 14 .847 13.175 0l-1.782 1.741h-1.366A1.88 1.88 0 0 0 8.174.188c-.927 0-1.696.675-1.853 1.553H2.623L.817 0 0 .847l6.446 6.228v5.748H3.502V14h6.996v-1.177H7.624V7.075zm.55-5.71c.392 0 .707.313.707.706a.703.703 0 0 1-.707.705.703.703 0 0 1-.707-.705c0-.393.314-.706.707-.706zM3.84 2.918h2.654a1.877 1.877 0 0 0 1.68 1.035c.738 0 1.374-.424 1.68-1.035h.338l-3.157 3.09-3.195-3.09z"
        fill="#000"/>
</svg>
