<svg width="32" height="32" fill="none" xmlns="http://www.w3.org/2000/svg"><path fill-rule="evenodd" clip-rule="evenodd" d="M5 0a5 5 0 0 0-5 5v22a5 5 0 0 0 5 5h22a5 5 0 0 0 5-5V5a5 5 0 0 0-5-5H5zm1.03 16.002c0-5.506 4.464-9.969 9.97-9.969s9.97 4.464 9.97 9.97c0 5.505-4.464 9.968-9.97 9.968s-9.97-4.463-9.97-9.969zm13.687 4.616a.621.621 0 1 0 .649-1.061c-2.628-1.606-5.886-1.98-9.683-1.112a.62.62 0 1 0 .276 1.212c3.47-.793 6.417-.47 8.758.96zm1.006-2.665a.777.777 0 0 0 .813-1.325c-3.078-1.89-7.579-2.423-11.2-1.324a.778.778 0 0 0 .453 1.487c3.17-.962 7.254-.485 9.934 1.162zm-10.408-4.236c3.067-.93 8.368-.756 11.582 1.153a.932.932 0 1 0 .951-1.604c-3.699-2.196-9.553-2.402-13.075-1.333a.933.933 0 0 0 .542 1.784z" fill="#5083F3"/></svg>