<svg width="23" height="22" fill="none" xmlns="http://www.w3.org/2000/svg"><path fill-rule="evenodd" clip-rule="evenodd" d="M10.492 2.144c-4.625 0-8.461 3.835-8.461 8.461 0 4.739 3.723 8.462 8.461 8.462 4.626 0 8.462-3.836 8.462-8.462 0-4.626-3.723-8.461-8.462-8.461zM0 10.605C0 4.738 4.738 0 10.492 0c5.867 0 10.493 4.738 10.493 10.605 0 2.482-.903 4.739-2.257 6.544l3.046 3.046c.452.451.452 1.128 0 1.466-.45.452-1.128.452-1.466 0l-3.046-3.046c-1.806 1.58-4.175 2.482-6.77 2.482C4.738 21.323 0 16.472 0 10.605z" fill="#000"/></svg>