<svg width="200" height="656" fill="none" xmlns="http://www.w3.org/2000/svg"><path fill="#fff" d="M0 0h200v656H0z"/><path d="M191.598 0H8.582v192.597h183.016V0zM121.041 348.035c-.358 0-1.164-.358-1.522-.358V238.619H79.585v109.058c-.716.358-1.522.716-1.88.716-15.49-15.042-30.532-29.995-45.217-44.321-10.207 9.311-19.25 17.907-27.488 25.697a23157.327 23157.327 0 0 1 95 90.434c31.697-29.996 63.662-60.439 95-89.718-9.043-8.954-18.087-17.549-28.652-27.13-14.774 14.685-30.175 29.727-45.307 44.68zM168.244 483.727l-50.052 30.532V454H80.676v60.259l-49.694-30.532L12 517.662l50.052 30.532L12 578.727l18.982 33.935 49.694-30.533v61.781h37.516v-61.781l50.052 30.533 18.624-33.935-50.052-30.533 50.052-30.532-18.624-33.935z" fill="#5083F3"/></svg>