<svg width="303" height="30" fill="none" xmlns="http://www.w3.org/2000/svg">
  <path
    d="M8.913 1.775A4.7 4.7 0 0 0 7.404.469c-1.131-.625-2.37-.625-3.555 0-.593.283-1.078.738-1.509 1.306a6.829 6.829 0 0 0-1.077 2.101C.993 4.671.832 5.58.832 6.659v16.64c0 1.079.162 2.044.377 2.84.27.794.647 1.533 1.078 2.1.43.568.97 1.023 1.562 1.307.592.284 1.185.454 1.778.454a3.94 3.94 0 0 0 1.777-.454c.593-.284 1.078-.739 1.563-1.306a6.828 6.828 0 0 0 1.077-2.102c.27-.795.377-1.76.377-2.84v-1.135c0-1.022-.592-1.363-1.185-1.363h-.862c-.539 0-1.185.34-1.185 1.363v1.42c0 .908-.162 1.59-.485 1.987-.323.398-.646.568-1.077.568-.431 0-.808-.17-1.132-.568-.27-.454-.43-1.079-.43-1.987V6.432c0-.91.16-1.59.484-2.045.323-.397.647-.568 1.131-.568.431 0 .755.17 1.078.568.323.398.485 1.08.485 2.045v.965c0 1.022.592 1.363 1.185 1.363h.808c.323 0 .646-.17.862-.397.215-.228.323-.568.323-.966V6.66c0-1.022-.108-1.988-.377-2.783-.323-.852-.7-1.533-1.131-2.101zM23.822.242h-1.024c-.592 0-1.023.398-1.131 1.022l-2.855 13.29a6.159 6.159 0 0 1-.162.681V1.605c0-1.022-.592-1.363-1.185-1.363h-.862c-.539 0-1.185.34-1.185 1.363v26.692c0 1.022.593 1.363 1.185 1.363h1.024c.592 0 1.023-.398 1.131-1.022l2.855-13.403.162-.681V28.24c0 1.023.592 1.363 1.185 1.363h.862c.539 0 1.185-.34 1.185-1.363V1.548c0-.908-.593-1.306-1.185-1.306zm14.217 14.425a4.358 4.358 0 0 0-1.563-1.306c-.592-.284-1.185-.454-1.777-.454h-1.401s-.054-.114-.054-.227V4.104H37.5c.539 0 1.185-.34 1.185-1.363V1.605c0-1.022-.593-1.363-1.185-1.363h-6.303c-.539 0-1.185.341-1.185 1.363v26.692c0 1.023.592 1.363 1.185 1.363h3.502c.592 0 1.185-.17 1.777-.454.593-.34 1.078-.795 1.563-1.363.43-.568.808-1.306 1.077-2.158.27-.852.377-1.817.377-2.84v-3.237c0-1.079-.162-2.044-.377-2.84a6.831 6.831 0 0 0-1.077-2.1zm-4.741 2.102h1.401c.43 0 .754.17 1.077.568.323.397.485 1.079.485 1.987v3.748c0 .91-.162 1.59-.485 1.988-.323.398-.647.568-1.078.568h-1.399s-.054-.113-.054-.227v-8.405c0-.17.054-.227.054-.227zM52.896.242h-1.023c-.593 0-1.024.398-1.132 1.022l-2.855 13.29a6.185 6.185 0 0 1-.162.681V1.605c0-1.022-.592-1.363-1.185-1.363h-.862c-.538 0-1.185.34-1.185 1.363v26.692c0 1.022.593 1.363 1.185 1.363h1.024c.593 0 1.023-.398 1.131-1.022l2.855-13.403.162-.681V28.24c0 1.023.593 1.363 1.185 1.363h.862c.539 0 1.185-.34 1.185-1.363V1.548c0-.908-.646-1.306-1.185-1.306zm14.213 1.761A4.358 4.358 0 0 0 65.547.697C64.954.413 64.36.242 63.769.242h-3.502c-.539 0-1.185.34-1.185 1.363v26.692c0 1.022.593 1.363 1.185 1.363h.862c.539 0 1.185-.34 1.185-1.363V16.712h1.454c.593 0 1.186-.17 1.779-.455a4.357 4.357 0 0 0 1.562-1.306c.43-.568.808-1.25 1.077-2.101.27-.795.377-1.76.377-2.84V6.773c0-1.079-.161-2.044-.377-2.84-.323-.68-.646-1.362-1.077-1.93zm-4.795 2.101h1.454c.432 0 .755.17 1.078.568.323.397.485 1.079.485 1.988v3.748c0 .909-.162 1.59-.485 1.988-.323.397-.646.567-1.077.567h-1.401s-.054-.113-.054-.227V4.331c0-.17.054-.227 0-.227zM81.59 14.667a4.357 4.357 0 0 0-1.563-1.306c-.593-.284-1.185-.454-1.778-.454H76.85s-.054-.114-.054-.227V1.605c0-1.022-.593-1.363-1.185-1.363h-.862c-.539 0-1.186.34-1.186 1.363v26.692c0 1.022.593 1.363 1.186 1.363h3.501c.593 0 1.186-.17 1.778-.454.593-.341 1.078-.795 1.562-1.363.431-.568.808-1.306 1.078-2.158.27-.852.377-1.818.377-2.84v-3.237c0-1.079-.162-2.044-.377-2.84-.27-.851-.593-1.533-1.078-2.1zm-1.778 4.657v3.748c0 .909-.162 1.59-.485 1.988-.323.398-.647.568-1.078.568H76.85s-.054-.114-.054-.227v-8.633h1.399c.431 0 .755.17 1.078.568.377.455.539 1.08.539 1.988zM196.386 1.76a4.354 4.354 0 0 0-1.562-1.306C194.231.17 193.639 0 193.046 0h-3.501c-.539 0-1.186.34-1.186 1.363v26.692c0 1.022.593 1.363 1.186 1.363h.861c.539 0 1.186-.34 1.186-1.363V16.47h1.4c.593 0 1.185-.17 1.778-.455a4.352 4.352 0 0 0 1.562-1.306 6.843 6.843 0 0 0 1.078-2.101c.269-.795.377-1.76.377-2.84V6.531c0-1.079-.162-2.044-.377-2.84a6.594 6.594 0 0 0-1.024-1.93zm-4.74 2.329v-.227h1.4c.431 0 .754.17 1.078.568.323.397.484 1.079.484 1.987v3.749c0 .908-.161 1.59-.484 1.987-.324.398-.647.568-1.078.568h-1.4s-.054-.113-.054-.227V4.09h.054zm21.486 23.114-3.124-26.01C209.9.454 209.469 0 208.823 0h-1.67c-.647 0-1.078.454-1.186 1.193l-3.124 26.01c-.054.398-.054.625-.054.681v.228c0 .795.431 1.306 1.185 1.306h.754c.647 0 1.078-.454 1.186-1.193l.592-5.225c0-.17.054-.17.108-.17h2.909s.054.057.054.17l.646 5.225c.108.738.539 1.193 1.185 1.193h.755c.7 0 1.185-.511 1.185-1.306v-.227c-.162-.057-.216-.284-.216-.682zm-4.148-8.235v.114h-1.993v-.114c0-.113 0-.397.108-.908l.808-6.986c.054-.284.054-.51.108-.681.053.227.053.454.107.681l.808 6.986c.054.51.054.738.054.908zm17.444-4.543a4.353 4.353 0 0 0-1.562-1.306c-.592-.284-1.185-.454-1.778-.454h-1.4s-.054-.114-.054-.228V3.862h4.148c.539 0 1.185-.34 1.185-1.363V1.363c0-1.022-.593-1.363-1.185-1.363h-6.249c-.539 0-1.185.34-1.185 1.363v26.692c0 1.022.592 1.363 1.185 1.363h3.501c.593 0 1.186-.17 1.778-.454.593-.341 1.078-.795 1.562-1.363.431-.568.809-1.307 1.078-2.159.269-.851.377-1.817.377-2.84v-3.236c0-1.08-.162-2.045-.377-2.84a5.778 5.778 0 0 0-1.024-2.101zm-4.74 2.101h1.4c.431 0 .755.17 1.078.568.323.398.485 1.08.485 1.988v3.748c0 .909-.162 1.59-.485 1.988-.323.397-.647.568-1.078.568h-1.4s-.054-.114-.054-.227v-8.406c.054-.17.054-.227.054-.227zM238.489 0h-1.778c-1.778 0-3.879.909-3.879 5.168V24.25c0 4.26 2.101 5.168 3.879 5.168h1.778c1.777 0 3.878-.909 3.878-5.168V5.225c0-4.316-2.101-5.225-3.878-5.225zm.7 4.94v19.537c0 1.136-.431 1.136-.647 1.136h-1.831c-.27 0-.647 0-.647-1.136V4.941c0-1.136.431-1.136.647-1.136h1.778c.269.057.7.057.7 1.136zM256.252 0h-7.704c-.538 0-1.185.34-1.185 1.363v1.079c0 1.022.593 1.363 1.185 1.363h2.155s.054.114.054.227v24.023c0 1.022.593 1.363 1.185 1.363h.862c.539 0 1.185-.34 1.185-1.363V3.862h2.263c.539 0 1.185-.34 1.185-1.363V1.363C257.383.398 256.791 0 256.252 0zm16.529 27.203-3.125-26.01C269.549.454 269.118 0 268.471 0h-1.67c-.646 0-1.077.454-1.185 1.193l-3.125 26.01c-.054.398-.053.625-.053.681v.228c0 .795.43 1.306 1.185 1.306h.754c.646 0 1.077-.454 1.185-1.193l.593-5.225c0-.17.053-.17.107-.17h2.909s.054.057.054.17l.647 5.225c.107.738.538 1.193 1.185 1.193h.754c.7 0 1.185-.511 1.185-1.306v-.227c-.161-.057-.161-.284-.215-.682zm-4.148-8.235v.114h-1.994v-.114c0-.17.054-.51.108-.908l.808-6.986c.054-.284.054-.51.108-.681.054.227.054.454.108.681l.808 6.986c.054.397.054.681.054.908zM286.616 0h-7.435c-.538 0-1.185.34-1.185 1.363v26.692c0 1.022.593 1.363 1.185 1.363h7.435c.538 0 1.185-.34 1.185-1.363v-1.022c0-1.023-.593-1.363-1.185-1.363h-5.388s-.053-.114-.053-.228v-8.916h3.717c.538 0 1.185-.34 1.185-1.363v-1.079c0-1.022-.593-1.363-1.185-1.363h-3.717s-.054-.113-.054-.227V3.862h5.387c.538 0 1.185-.34 1.185-1.363V1.363C287.747.398 287.154 0 286.616 0zm15.07 0h-7.704c-.539 0-1.185.34-1.185 1.363v1.079c0 1.022.592 1.363 1.185 1.363h2.155s.054.114.054.227v24.023c0 1.022.592 1.363 1.185 1.363h.862c.539 0 1.185-.34 1.185-1.363V3.862h2.263c.538 0 1.185-.34 1.185-1.363V1.363C302.817.398 302.224 0 301.686 0zM135.407 4.898c2.209 2.215 4.471 4.543 6.734 6.815 0 .057-.054.17-.054.227h-16.431v6.02h16.431c.054.114.108.227.108.284-2.263 2.329-4.525 4.6-6.68 6.815 1.4 1.533 2.693 2.896 3.878 4.146 4.526-4.77 9.105-9.598 13.63-14.312-4.525-4.77-9.104-9.597-13.522-14.311a149.764 149.764 0 0 0-4.094 4.316zM92.258 29.431h27.582V.411H92.258v29.02zM180.12 5.124l-7.542 4.6V.638h-5.657v9.086l-7.488-4.6-2.855 5.111 7.542 4.6-7.542 4.6 2.855 5.112 7.488-4.6v9.314h5.657v-9.314l7.542 4.6 2.801-5.111-7.542-4.6 7.542-4.6-2.801-5.112z"
    fill="#5083F3"/>
</svg>
