<svg width="128" height="128" fill="none" xmlns="http://www.w3.org/2000/svg">
  <circle cx="64" cy="64" r="64" fill="#fff"/>
  <svg width="128" height="128" viewBox="0 0 128 128" xmlns="http://www.w3.org/2000/svg">
    <path
      d="M61.21 52.236c2.621 2.584 5.307 5.3 7.992 7.95 0 .067-.064.2-.064.266h-19.5v7.023h19.5c.064.132.128.265.128.331-2.686 2.716-5.37 5.367-7.928 7.95 1.662 1.79 3.197 3.38 4.603 4.838a3898.864 3898.864 0 0 1 16.176-16.697A3857.806 3857.806 0 0 1 66.069 47.2a177.322 177.322 0 0 0-4.859 5.036zM10 80.857h32.735V47H10v33.857zM90.308 51.863l5.46 8.799H84.983v6.6h10.784l-5.459 8.735 6.066 3.331 5.46-8.799 5.459 8.8 6.066-3.332-5.459-8.736h11.053v-6.599H107.9l5.459-8.799-6.066-3.268-5.459 8.799-5.46-8.8-6.066 3.269z"
      fill="#5083F3"/>
  </svg>
</svg>
