<svg width="15" height="15" fill="none" xmlns="http://www.w3.org/2000/svg">
  <path fill-rule="evenodd" clip-rule="evenodd"
        d="M14.086 11.533V3.17c0-.452-.167-1.083-.66-1.606-.51-.545-1.313-.92-2.467-.92v1.17c.875 0 1.337.273 1.583.538.271.28.35.623.35.818v6.143a3.053 3.053 0 0 0-1.838-.608c-1.425 0-2.619.958-2.945 2.252H6.064c-.327-1.294-1.52-2.252-2.945-2.252-.693 0-1.33.226-1.839.608V3.169c0-.195.08-.538.35-.818.247-.265.717-.538 1.584-.538V.643c-1.154 0-1.958.375-2.467.92a2.408 2.408 0 0 0-.66 1.606V11.673c0 1.645 1.36 2.97 3.032 2.97 1.52 0 2.778-1.099 3-2.525h1.934c.223 1.426 1.48 2.526 3.001 2.526 1.68 0 3.032-1.333 3.032-2.97v-.14zM3.111 13.474c-1.019 0-1.839-.81-1.839-1.8V11.565c.056-.944.86-1.692 1.839-1.692 1.019 0 1.838.81 1.838 1.8s-.82 1.801-1.838 1.801zm9.782-1.8c0 .997-.828 1.8-1.839 1.8-1.019 0-1.839-.81-1.839-1.8s.828-1.801 1.839-1.801a1.83 1.83 0 0 1 1.839 1.692V11.674z"
        fill="#000"/>
</svg>
