<svg width="91" height="21" fill="none" xmlns="http://www.w3.org/2000/svg"><path d="M91 14.435V12.38c0-3.315-2.837-6.04-6.363-6.04h-1.38c-3.523 0-6.363 2.725-6.363 6.04v2.134c0 .224.013.447.04.668.35 3.006 3.037 5.374 6.322 5.374h1.381c2.99 0 5.52-1.99 6.21-4.643h-3.833a3.406 3.406 0 0 1-3.06 1.911c-1.54 0-2.866-.98-3.256-2.338a2.99 2.99 0 0 1-.117-.83v-.22H91zm-10.42-2.201c0-1.762 1.533-3.17 3.375-3.17s3.376 1.401 3.376 3.17v.587h-6.752v-.587zM6.439 1.474h4.524L8.05 9.642 4.32 20.108l-.027.072H0l3.059-8.887 3.38-9.82zM21.925 20.18h-4.293L13.477 8.523l-2.514-7.05h4.524l2.29 6.654 4.148 12.053z" fill="#fff"/><path d="M17.48 20.18H4.216l.103-.072 6.566-4.641 6.593 4.713zM28.673 0v20.18h-3.834V2.724L28.673 0zm41.858 15.467c0 1.397.766 2.202 1.915 2.202a5.94 5.94 0 0 0 2.148-.44v2.652a8.515 8.515 0 0 1-3.22.587c-4.522 0-4.753-3.463-4.753-4.715V8.984h-2.454V6.48h2.454V1.4h3.83v2.43l-3.83 2.724h3.83l4.218-.073v2.504h-4.14l.002 6.483zM45.92 14.362v-1.987c0-3.39-2.835-6.115-6.362-6.115h-1.38c-2.577 0-4.784 1.456-5.787 3.531a5.724 5.724 0 0 0-.576 2.51v2.134c0 3.316 2.837 6.042 6.364 6.042h1.38c2.989 0 5.52-1.99 6.21-4.643h-3.834a3.405 3.405 0 0 1-3.067 1.917c-1.84 0-3.375-1.4-3.375-3.169v-.22H45.92zm-7.052-5.303c1.841 0 3.376 1.4 3.376 3.169v.587h-6.751v-.587c0-.503.125-.997.365-1.439a3.409 3.409 0 0 1 3.01-1.73zm23.612 2.429v8.69h-3.832v-8.322c0-.18-.016-.358-.046-.535-.146-.868-.704-2.189-2.788-2.189a2.92 2.92 0 0 0-1.597.44c-.793.497-1.192 1.314-1.393 1.846v8.764h-3.837V6.553h3.834v3.241a5.89 5.89 0 0 1 .261-.753c.827-1.944 2.495-2.708 4.415-2.708 4.295 0 4.907 3.684 4.983 5.155z" fill="#fff"/><path d="m10.886 15.467 6.593 4.711H0l3.059-8.876a46.816 46.816 0 0 1 4.99-1.653l-3.73 10.46 6.567-4.642zm6.89-7.342 4.149 12.053h-4.293L13.477 8.524c1.387-.196 2.82-.33 4.299-.398zm7.063.241c1.302.147 2.577.344 3.834.587v11.224h-3.834V8.367zm20.929 7.468c-.69 2.652-3.22 4.643-6.21 4.643h-1.38c-3.522 0-6.363-2.726-6.363-6.042v-2.134a5.727 5.727 0 0 1 .576-2.51c1.175.303 2.325.639 3.47.998-.24.442-.366.936-.365 1.439v.587h6.173c1.33.5 2.657 1.02 3.985 1.545H35.496v.22c0 1.762 1.532 3.17 3.375 3.17a3.406 3.406 0 0 0 3.066-1.918l3.831.002zm3.219-.154c1.268.499 2.544.995 3.834 1.468v3.023h-3.834V15.68zm9.661 3.484c1.167.362 2.352.7 3.555 1.014h-3.555v-1.014zM48.987 6.553h3.834v2.36a46.103 46.103 0 0 1-3.834-2.095v-.265zm13.493 4.935v1.054a61.475 61.475 0 0 1-3.878-1.221c-.147-.868-.704-2.189-2.788-2.189a2.92 2.92 0 0 0-1.597.44 50.73 50.73 0 0 1-1.132-.528C53.911 7.1 55.58 6.336 57.5 6.336c4.292-.003 4.904 3.681 4.98 5.152zm7.972-4.935 4.217-.073v2.504h-4.14v5.343a79.75 79.75 0 0 1-3.91-.755V8.984h-2.452V6.48h2.454V1.4h3.83v2.43l-3.83 2.724h3.83zM91 14.435V12.38c0-3.315-2.837-6.04-6.363-6.04h-1.38c-3.523 0-6.363 2.725-6.363 6.04v2.134c0 .224.013.447.04.668 1.215.12 2.466.226 3.757.31a2.99 2.99 0 0 1-.118-.83v-.22L91 14.434zm-10.42-2.201c0-1.762 1.533-3.17 3.375-3.17s3.376 1.401 3.376 3.17v.587h-6.752v-.587z" fill="#fff"/></svg>